<svg width="40" height="40" viewBox="0 0 40 40" fill="none" xmlns="http://www.w3.org/2000/svg">
<path d="M18.7502 0.054677C17.2033 0.320302 15.758 1.10936 14.6018 2.32811C10.758 6.37499 12.6877 13.0703 18.133 14.5469C19.0783 14.8047 20.9143 14.8047 21.8752 14.5391C26.6252 13.2578 28.8283 7.93749 26.3987 3.61718C25.9299 2.78124 24.6565 1.5078 23.7893 1.0078C22.508 0.273427 21.4455 -0.00782299 19.9377 0.00780201C19.3908 0.0156145 18.8596 0.039052 18.7502 0.054677Z" fill="#304E48"/>
<path d="M10.8204 16.7578C8.10164 17.3594 6.1407 19.25 5.37508 22.0156C5.21101 22.5938 5.2032 22.7812 5.17195 27.5703C5.14851 32.8047 5.15633 32.9297 5.50008 33.0078C5.58601 33.0312 7.30476 33.0391 9.31258 33.0312L12.9532 33.0078L10.6954 30.9375C9.35164 29.7031 8.41414 28.7891 8.38289 28.6797C8.35945 28.5781 8.36726 28.4062 8.40633 28.2969C8.56258 27.8594 8.62508 27.8438 12.422 27.4219C14.3751 27.2109 16.0626 27 16.1563 26.9688C16.3126 26.9219 16.6173 26.3125 17.8985 23.5156C18.7657 21.6172 19.5235 20.0547 19.6173 19.9766C19.8516 19.7891 20.2032 19.8047 20.4141 20.0156C20.5548 20.1562 22.3048 23.8828 23.4845 26.5391C23.6407 26.8828 23.7032 26.9531 23.922 26.9922C24.0626 27.0156 25.7423 27.2109 27.6563 27.4297C31.3673 27.8438 31.4376 27.8594 31.5938 28.2969C31.6329 28.4062 31.6407 28.5781 31.6173 28.6797C31.586 28.7891 30.6485 29.7031 29.3048 30.9375L27.047 33.0078L30.6876 33.0312C32.6954 33.0391 34.4141 33.0312 34.5001 33.0078C34.8438 32.9297 34.8516 32.8047 34.8282 27.5703C34.797 22.7812 34.7891 22.5938 34.6251 22.0156C34.0079 19.7812 32.6954 18.2031 30.672 17.2656C29.3438 16.6406 30.1641 16.6875 20.1954 16.6641C12.9923 16.6562 11.2032 16.6719 10.8204 16.7578Z" fill="#304E48"/>
<path d="M19.0705 24.1641C17.5392 27.5313 17.297 28.0235 17.1017 28.1485C16.9689 28.2344 15.9377 28.3828 13.797 28.625C12.0783 28.8203 10.6642 29 10.6486 29.0156C10.633 29.0313 11.672 30.0235 12.9689 31.211C14.2658 32.4063 15.3517 33.461 15.3908 33.5469C15.4299 33.6641 15.2502 34.7344 14.8283 36.8281C14.4845 38.5391 14.2267 39.9531 14.2502 39.9766C14.2736 40 15.5314 39.3281 17.0392 38.4766C18.547 37.625 19.8595 36.9141 19.9533 36.8985C20.0627 36.875 20.8049 37.2578 22.0705 37.9688C25.3674 39.8281 25.7111 40.0156 25.7502 39.9766C25.7736 39.9531 25.5158 38.5391 25.172 36.8281C24.7502 34.7344 24.5705 33.6641 24.6095 33.5469C24.6486 33.461 25.7345 32.4063 27.0314 31.211C28.3283 30.0235 29.3674 29.0313 29.3517 29.0156C29.3361 29 27.922 28.8281 26.2033 28.625C23.7658 28.3516 23.047 28.2422 22.8908 28.1328C22.7502 28.0313 22.3127 27.1641 21.3674 25.0938C20.6408 23.5 20.0236 22.1875 20.0002 22.1953C19.9767 22.1953 19.5549 23.0781 19.0705 24.1641Z" fill="#304E48"/>
</svg>
